<svg viewBox="0 0 330 200" xmlns="http://www.w3.org/2000/svg"><g><g><g><g><g><line x1="50" y1="178" x2="45" y2="178" style="visibility: inherit;" fill="rgb(0, 0, 0)" stroke="rgb(204, 204, 204)" stroke-width="1px"></line><line x1="50" y1="164.3076923076923" x2="45" y2="164.3076923076923" style="visibility: inherit;" fill="rgb(0, 0, 0)" stroke="rgb(204, 204, 204)" stroke-width="1px"></line><line x1="50" y1="150.61538461538458" x2="45" y2="150.61538461538458" style="visibility: inherit;" fill="rgb(0, 0, 0)" stroke="rgb(204, 204, 204)" stroke-width="1px"></line><line x1="50" y1="136.92307692307688" x2="45" y2="136.92307692307688" style="visibility: inherit;" fill="rgb(0, 0, 0)" stroke="rgb(204, 204, 204)" stroke-width="1px"></line><line x1="50" y1="123.2307692307692" x2="45" y2="123.2307692307692" style="visibility: inherit;" fill="rgb(0, 0, 0)" stroke="rgb(204, 204, 204)" stroke-width="1px"></line><line x1="50" y1="109.53846153846163" x2="45" y2="109.53846153846163" style="visibility: inherit;" fill="rgb(0, 0, 0)" stroke="rgb(204, 204, 204)" stroke-width="1px"></line><line x1="50" y1="95.84615384615392" x2="45" y2="95.84615384615392" style="visibility: inherit;" fill="rgb(0, 0, 0)" stroke="rgb(204, 204, 204)" stroke-width="1px"></line><line x1="50" y1="82.15384615384622" x2="45" y2="82.15384615384622" style="visibility: inherit;" fill="rgb(0, 0, 0)" stroke="rgb(204, 204, 204)" stroke-width="1px"></line><line x1="50" y1="68.46153846153851" x2="45" y2="68.46153846153851" style="visibility: inherit;" fill="rgb(0, 0, 0)" stroke="rgb(204, 204, 204)" stroke-width="1px"></line><line x1="50" y1="54.769230769230816" x2="45" y2="54.769230769230816" style="visibility: inherit;" fill="rgb(0, 0, 0)" stroke="rgb(204, 204, 204)" stroke-width="1px"></line><line x1="50" y1="41.07692307692312" x2="45" y2="41.07692307692312" style="visibility: inherit;" fill="rgb(0, 0, 0)" stroke="rgb(204, 204, 204)" stroke-width="1px"></line><line x1="50" y1="27.384615384615415" x2="45" y2="27.384615384615415" style="visibility: inherit;" fill="rgb(0, 0, 0)" stroke="rgb(204, 204, 204)" stroke-width="1px"></line><line x1="50" y1="13.692307692307708" x2="45" y2="13.692307692307708" style="visibility: inherit;" fill="rgb(0, 0, 0)" stroke="rgb(204, 204, 204)" stroke-width="1px"></line><line x1="50" y1="0" x2="45" y2="0" style="visibility: inherit;" fill="rgb(0, 0, 0)" stroke="rgb(204, 204, 204)" stroke-width="1px"></line></g><g transform="translate(40, 0)"><text x="0" y="178" dx="0em" dy="0.3em" style="text-anchor: end; visibility: hidden; font-family: &quot;Helvetica Neue&quot;, sans-serif; font-size: 12px; font-weight: 200;" fill="rgb(50, 49, 63)" stroke="none" stroke-width="1px">0.89</text><text x="0" y="164.3076923076923" dx="0em" dy="0.3em" style="text-anchor: end; visibility: inherit; font-family: &quot;Helvetica Neue&quot;, sans-serif; font-size: 12px; font-weight: 200;" fill="rgb(50, 49, 63)" stroke="none" stroke-width="1px">0.9</text><text x="0" y="150.61538461538458" dx="0em" dy="0.3em" style="text-anchor: end; visibility: hidden; font-family: &quot;Helvetica Neue&quot;, sans-serif; font-size: 12px; font-weight: 200;" fill="rgb(50, 49, 63)" stroke="none" stroke-width="1px">0.91</text><text x="0" y="136.92307692307688" dx="0em" dy="0.3em" style="text-anchor: end; visibility: inherit; font-family: &quot;Helvetica Neue&quot;, sans-serif; font-size: 12px; font-weight: 200;" fill="rgb(50, 49, 63)" stroke="none" stroke-width="1px">0.92</text><text x="0" y="123.2307692307692" dx="0em" dy="0.3em" style="text-anchor: end; visibility: hidden; font-family: &quot;Helvetica Neue&quot;, sans-serif; font-size: 12px; font-weight: 200;" fill="rgb(50, 49, 63)" stroke="none" stroke-width="1px">0.93</text><text x="0" y="109.53846153846163" dx="0em" dy="0.3em" style="text-anchor: end; visibility: inherit; font-family: &quot;Helvetica Neue&quot;, sans-serif; font-size: 12px; font-weight: 200;" fill="rgb(50, 49, 63)" stroke="none" stroke-width="1px">0.94</text><text x="0" y="95.84615384615392" dx="0em" dy="0.3em" style="text-anchor: end; visibility: hidden; font-family: &quot;Helvetica Neue&quot;, sans-serif; font-size: 12px; font-weight: 200;" fill="rgb(50, 49, 63)" stroke="none" stroke-width="1px">0.95</text><text x="0" y="82.15384615384622" dx="0em" dy="0.3em" style="text-anchor: end; visibility: inherit; font-family: &quot;Helvetica Neue&quot;, sans-serif; font-size: 12px; font-weight: 200;" fill="rgb(50, 49, 63)" stroke="none" stroke-width="1px">0.96</text><text x="0" y="68.46153846153851" dx="0em" dy="0.3em" style="text-anchor: end; visibility: hidden; font-family: &quot;Helvetica Neue&quot;, sans-serif; font-size: 12px; font-weight: 200;" fill="rgb(50, 49, 63)" stroke="none" stroke-width="1px">0.97</text><text x="0" y="54.769230769230816" dx="0em" dy="0.3em" style="text-anchor: end; visibility: inherit; font-family: &quot;Helvetica Neue&quot;, sans-serif; font-size: 12px; font-weight: 200;" fill="rgb(50, 49, 63)" stroke="none" stroke-width="1px">0.98</text><text x="0" y="41.07692307692312" dx="0em" dy="0.3em" style="text-anchor: end; visibility: hidden; font-family: &quot;Helvetica Neue&quot;, sans-serif; font-size: 12px; font-weight: 200;" fill="rgb(50, 49, 63)" stroke="none" stroke-width="1px">0.99</text><text x="0" y="27.384615384615415" dx="0em" dy="0.3em" style="text-anchor: end; visibility: inherit; font-family: &quot;Helvetica Neue&quot;, sans-serif; font-size: 12px; font-weight: 200;" fill="rgb(50, 49, 63)" stroke="none" stroke-width="1px">1</text><text x="0" y="13.692307692307708" dx="0em" dy="0.3em" style="text-anchor: end; visibility: hidden; font-family: &quot;Helvetica Neue&quot;, sans-serif; font-size: 12px; font-weight: 200;" fill="rgb(50, 49, 63)" stroke="none" stroke-width="1px">1.01</text><text x="0" y="0" dx="0em" dy="0.3em" style="text-anchor: end; visibility: hidden; font-family: &quot;Helvetica Neue&quot;, sans-serif; font-size: 12px; font-weight: 200;" fill="rgb(50, 49, 63)" stroke="none" stroke-width="1px">1.02</text></g><line x1="50" y1="0" x2="50" y2="178" fill="rgb(0, 0, 0)" stroke="rgb(204, 204, 204)" stroke-width="1px"></line></g></g><g transform="translate(50, 0)" clip-path="url(#clip_0)"><clipPath id="clip_0"><rect width="280" height="178"></rect></clipPath><g><g><g><line x1="0" y1="0" x2="0" y2="178" fill="rgb(0, 0, 0)" stroke="rgb(60, 60, 60)" stroke-width="1px" opacity="0.25"></line><line x1="23.333333333333332" y1="0" x2="23.333333333333332" y2="178" fill="rgb(0, 0, 0)" stroke="rgb(60, 60, 60)" stroke-width="1px" opacity="0.25"></line><line x1="46.666666666666664" y1="0" x2="46.666666666666664" y2="178" fill="rgb(0, 0, 0)" stroke="rgb(60, 60, 60)" stroke-width="1px" opacity="0.25"></line><line x1="70" y1="0" x2="70" y2="178" fill="rgb(0, 0, 0)" stroke="rgb(60, 60, 60)" stroke-width="1px" opacity="0.25"></line><line x1="93.33333333333333" y1="0" x2="93.33333333333333" y2="178" fill="rgb(0, 0, 0)" stroke="rgb(60, 60, 60)" stroke-width="1px" opacity="0.25"></line><line x1="116.66666666666667" y1="0" x2="116.66666666666667" y2="178" fill="rgb(0, 0, 0)" stroke="rgb(60, 60, 60)" stroke-width="1px" opacity="0.25"></line><line x1="140" y1="0" x2="140" y2="178" fill="rgb(0, 0, 0)" stroke="rgb(60, 60, 60)" stroke-width="1px" opacity="0.25"></line><line x1="163.33333333333334" y1="0" x2="163.33333333333334" y2="178" fill="rgb(0, 0, 0)" stroke="rgb(60, 60, 60)" stroke-width="1px" opacity="0.25"></line><line x1="186.66666666666666" y1="0" x2="186.66666666666666" y2="178" fill="rgb(0, 0, 0)" stroke="rgb(60, 60, 60)" stroke-width="1px" opacity="0.25"></line><line x1="210" y1="0" x2="210" y2="178" fill="rgb(0, 0, 0)" stroke="rgb(60, 60, 60)" stroke-width="1px" opacity="0.25"></line><line x1="233.33333333333334" y1="0" x2="233.33333333333334" y2="178" fill="rgb(0, 0, 0)" stroke="rgb(60, 60, 60)" stroke-width="1px" opacity="0.25"></line><line x1="256.66666666666663" y1="0" x2="256.66666666666663" y2="178" fill="rgb(0, 0, 0)" stroke="rgb(60, 60, 60)" stroke-width="1px" opacity="0.25"></line><line x1="280" y1="0" x2="280" y2="178" fill="rgb(0, 0, 0)" stroke="rgb(60, 60, 60)" stroke-width="1px" opacity="0.25"></line></g><g><line x1="0" y1="178" x2="280" y2="178" fill="rgb(0, 0, 0)" stroke="rgb(60, 60, 60)" stroke-width="1px" opacity="0.25"></line><line x1="0" y1="164.3076923076923" x2="280" y2="164.3076923076923" fill="rgb(0, 0, 0)" stroke="rgb(60, 60, 60)" stroke-width="1px" opacity="0.25"></line><line x1="0" y1="150.61538461538458" x2="280" y2="150.61538461538458" fill="rgb(0, 0, 0)" stroke="rgb(60, 60, 60)" stroke-width="1px" opacity="0.25"></line><line x1="0" y1="136.92307692307688" x2="280" y2="136.92307692307688" fill="rgb(0, 0, 0)" stroke="rgb(60, 60, 60)" stroke-width="1px" opacity="0.25"></line><line x1="0" y1="123.2307692307692" x2="280" y2="123.2307692307692" fill="rgb(0, 0, 0)" stroke="rgb(60, 60, 60)" stroke-width="1px" opacity="0.25"></line><line x1="0" y1="109.53846153846163" x2="280" y2="109.53846153846163" fill="rgb(0, 0, 0)" stroke="rgb(60, 60, 60)" stroke-width="1px" opacity="0.25"></line><line x1="0" y1="95.84615384615392" x2="280" y2="95.84615384615392" fill="rgb(0, 0, 0)" stroke="rgb(60, 60, 60)" stroke-width="1px" opacity="0.25"></line><line x1="0" y1="82.15384615384622" x2="280" y2="82.15384615384622" fill="rgb(0, 0, 0)" stroke="rgb(60, 60, 60)" stroke-width="1px" opacity="0.25"></line><line x1="0" y1="68.46153846153851" x2="280" y2="68.46153846153851" fill="rgb(0, 0, 0)" stroke="rgb(60, 60, 60)" stroke-width="1px" opacity="0.25"></line><line x1="0" y1="54.769230769230816" x2="280" y2="54.769230769230816" fill="rgb(0, 0, 0)" stroke="rgb(60, 60, 60)" stroke-width="1px" opacity="0.25"></line><line x1="0" y1="41.07692307692312" x2="280" y2="41.07692307692312" fill="rgb(0, 0, 0)" stroke="rgb(60, 60, 60)" stroke-width="1px" opacity="0.25"></line><line x1="0" y1="27.384615384615415" x2="280" y2="27.384615384615415" fill="rgb(0, 0, 0)" stroke="rgb(60, 60, 60)" stroke-width="1px" opacity="0.25"></line><line x1="0" y1="13.692307692307708" x2="280" y2="13.692307692307708" fill="rgb(0, 0, 0)" stroke="rgb(60, 60, 60)" stroke-width="1px" opacity="0.25"></line><line x1="0" y1="0" x2="280" y2="0" fill="rgb(0, 0, 0)" stroke="rgb(60, 60, 60)" stroke-width="1px" opacity="0.25"></line></g></g></g><g><g><line x1="0" y1="1396.6153846153845" x2="280" y2="1396.6153846153845" fill="rgb(0, 0, 0)" stroke="rgb(153, 153, 153)" stroke-width="1.5px"></line></g></g><g><g><line x1="23.333333333333332" y1="0" x2="23.333333333333332" y2="178" fill="rgb(0, 0, 0)" stroke="rgb(153, 153, 153)" stroke-width="1.5px"></line></g></g><g><g><g><g><g><path stroke="rgb(255, 112, 67)" stroke-width="2px" d="M31.5,180.92813770531967L32.08333333333333,174.27809655457324L32.666666666666664,170.28927273920004L33.25,145.98648137426693L33.833333333333336,142.36088952421886L34.416666666666664,123.75432149638662L35,145.45307673715593L35.58333333333333,136.56403281808994L36.16666666666667,125.7537202397333L36.75,130.22147494239465L37.333333333333336,132.90211421520064L37.916666666666664,134.51049290135L38.5,140.952441816434L39.083333333333336,139.34068572871962L39.666666666666664,127.41979296608599L40.25,125.74417918412408L40.833333333333336,135.69264831243422L41.416666666666664,152.6155981691019L42,113.47703889380847L42.58333333333333,122.85544523361693L43.16666666666667,144.91327535416116L43.75,147.1941047183736L44.33333333333333,159.5164707420841L44.91666666666667,139.52526829220403L45.5,122.05362900385992L46.083333333333336,122.52448117785228L46.666666666666664,111.85315676561518L47.25,127.3580335491819L47.833333333333336,114.7532881933322L48.416666666666664,112.66735883682276L49,111.41580122314838L49.583333333333336,127.0956202172183L50.166666666666664,114.59584019732587L50.75,112.57289003953478L51.33333333333333,89.45141588469997L51.91666666666667,97.4862354520697L52.5,91.35329148495255L53.08333333333333,87.67352510470128L53.66666666666667,107.37333669148425L54.25,108.23938793607621L54.833333333333336,114.23593653655652L55.416666666666664,112.35694784311794L56,94.79876842087953L56.583333333333336,111.64848268115928L57.166666666666664,105.32755767615774L57.75,85.10421646698437L58.333333333333336,89.40099794765338L58.916666666666664,102.93290254349935L59.5,83.6674233873899L60.08333333333333,88.53892209989677L60.66666666666667,102.41565703484517L61.25,110.74169799581406L61.83333333333333,121.21424042611784L62.41666666666667,116.54393017685561L63,91.83403996740388L63.583333333333336,82.48502369545498L64.16666666666666,65.92177822484133L64.75,66.93766664991769L65.33333333333333,89.45490376485763L65.91666666666667,102.96524603382166L66.5,100.11761568775563L67.08333333333334,92.93211962639384L67.66666666666667,88.62082198957674L68.25,86.03404340748638L68.83333333333333,79.0050257595046L69.41666666666667,69.31069731699334L70,79.92488645765864L70.58333333333333,86.29339994205779L71.16666666666666,73.68372182652521L71.75,71.594832810928L72.33333333333334,70.34149940156955L72.91666666666667,75.0664498546821L73.5,83.378337980272L74.08333333333333,104.79622441679254L74.66666666666667,95.7392848638159L75.25,84.82817063330239L75.83333333333333,78.28150209499424L76.41666666666666,96.26120503190357L77,90.6182732328826L77.58333333333334,76.27864580102003L78.16666666666667,78.62873769435237L78.75,80.03879283035188L79.33333333333333,69.93095755950173L79.91666666666666,63.866256396991545L80.5,71.18130405193538L81.08333333333334,86.52416835234624L81.66666666666667,73.82218287269832L82.25,60.72407373118736L82.83333333333333,69.29599445245277L83.41666666666667,63.48527853276225L84,59.99884898094783L84.58333333333333,63.383909103581445L85.16666666666666,65.41494517716174L85.75,66.63356682130986L86.33333333333334,67.36473980779877L86.91666666666667,56.84960789224766L87.5,66.97131494908906L88.08333333333333,67.56738868446621L88.66666666666666,56.971197218248065L89.25,50.613482338517215L89.83333333333334,52.27577126440083L90.41666666666667,47.79622676620875L91,45.108500067293676L91.58333333333333,43.495864047944565L92.16666666666667,58.959068642507205L92.75,46.329287339350486L93.33333333333333,44.22833641117856L93.91666666666666,48.444683707997655L94.5,40.02065637864479L95.08333333333334,56.87394404092723L95.66666666666667,66.9859166382968L96.25,62.09923184426863L96.83333333333333,64.64413882157393L97.41666666666666,60.69416515423495L98,58.324180953831586L98.58333333333334,56.90219043358945L99.16666666666667,45.09516041399979L99.75,48.9647781096904L100.33333333333333,51.28654872710486L100.91666666666667,69.1103973037255L101.5,57.8970023898037L102.08333333333333,51.168965441450524L102.66666666666666,52.609061126160924L103.25,42.51928282954279L103.83333333333334,47.41925155901623L104.41666666666667,50.35923279670031L105,52.12322153931066L105.58333333333333,64.13548313732677L106.16666666666666,54.9120538899643L106.75,54.85491419526919L107.33333333333334,54.82063037845202L107.91666666666667,54.80006008836173L108.5,49.31080006058539L109.08333333333333,51.49416189764183L109.66666666666667,52.804178999875674L110.25,59.06710711493824L110.83333333333333,62.82486398397579L111.41666666666666,59.602600251676066L112,63.14615986601849L112.58333333333334,76.22616398707379L113.16666666666667,73.12029810725709L113.75,71.25677857936708L114.33333333333333,53.707913301466405L114.91666666666666,59.60934769589272L115.5,52.19637262510413L116.08333333333334,53.22550543635309L116.66666666666667,53.842985123102395L117.25,48.73655508142974L117.83333333333333,56.62653276387071L118.41666666666667,55.88360151961297L119,55.437842773058264L119.58333333333333,44.216551817681136L120.16666666666666,37.48377724445484L120.75,38.921030354241395L121.33333333333334,39.7833822201132L121.91666666666667,40.300793339636414L122.5,57.04202621752228L123.08333333333333,88.99443735914274L123.66666666666666,86.25821262922601L124.25,79.13952729254841L124.83333333333334,74.86831609054187L125.41666666666667,66.82867151561565L126,62.00488477065997L126.58333333333333,59.1106127236865L127.16666666666667,62.850967349224746L127.75,54.1413444171033L128.33333333333331,48.91557065783036L128.91666666666666,56.73394210971105L129.5,44.99421141967275L130.08333333333334,48.90420871309419L130.66666666666666,51.250207089147096L131.25,47.18088826105668L131.83333333333334,55.693132671646794L132.41666666666666,60.80047931800091L133,58.38796945209113L133.58333333333334,62.41738138626755L134.16666666666669,53.881192839328804L134.75,54.23639756488775L135.33333333333334,48.972602546500866L135.91666666666666,40.33740768174667L136.5,46.11012647033854L137.08333333333331,66.00454394966582L137.66666666666666,66.98732608481227L138.25,67.57699536590017L138.83333333333334,51.50004337338633L139.41666666666666,58.28462573904464L140,45.92462159727293L140.58333333333334,49.46245481965437L141.16666666666666,51.585154753083145L141.75,58.335692566862676L142.33333333333331,73.3398836075803L142.91666666666666,54.95777631839428L143.5,60.35926550604944L144.08333333333331,63.600159018642444L144.66666666666669,54.590859418753865L145.25,60.139115366265074L145.83333333333334,52.51423322732745L146.41666666666669,58.89313965140933L147,51.766647798414056L147.58333333333334,58.44458839406117L148.16666666666666,67.92830325017715L148.75,57.187745957674636L149.33333333333334,61.697247289617636L149.91666666666666,69.87989858751105L150.5,69.31253886751938L151.08333333333331,63.49520518180222L151.66666666666666,60.004804970371936L152.25,46.956729136069384L152.83333333333331,39.12788363548779L153.41666666666669,39.907494188861136L154,40.37526052088518L154.58333333333334,40.655920320099426L155.16666666666669,46.30123405335016L155.75,49.68842229330059L156.33333333333334,46.243817383548674L156.91666666666666,44.17705443769765L157.5,48.41391452390917L158.08333333333334,50.956030575636106L158.66666666666666,41.527464499227904L159.25,35.870324853382925L159.83333333333331,37.95295891959799L160.41666666666666,39.20253935932726L161,45.42920547688689L161.58333333333331,43.68828729370037L162.16666666666669,42.643736383788706L162.75,42.01700583784148L163.33333333333334,36.164049656551015L163.91666666666669,32.652275947776815L164.5,30.54521172251225L165.08333333333334,40.23480889479785L165.66666666666666,57.00243555061911L166.25,50.63222533793993L166.83333333333334,41.33318135661017L167.41666666666666,35.753754967812256L168,43.35993484197783L168.58333333333331,36.96980705903292L169.16666666666666,33.13573038926597L169.75,52.74298844730002L170.33333333333331,48.07655707594839L170.91666666666669,56.23053396058177L171.5,44.69216653019524L172.08333333333334,43.24606392568535L172.66666666666669,36.90148450925733L173.25,33.0947368594006L173.83333333333334,36.28760612320866L174.41666666666666,32.726409827771306L175,30.589692050508916L175.58333333333334,40.26149709159586L176.16666666666666,35.1107444088037L176.75,42.9741285065727L177.33333333333331,47.6921589652342L177.91666666666666,55.99989509415336L178.5,50.03070106406041L179.08333333333331,46.44918464600457L179.66666666666669,38.823356941448964L180.25,34.24786031871551L180.83333333333334,36.9794801987976L181.41666666666669,38.618452126846904L182,34.12491742995425L182.58333333333334,31.42879661181871L183.16666666666666,35.288041974659734L183.75,37.603589192364126L184.33333333333334,44.46983537670897L184.91666666666666,48.58958308731593L185.5,45.58451385995778L186.08333333333331,38.30455446982086L186.66666666666666,39.41349668946074L187.25,51.03269772868923L187.83333333333331,47.05038264478202L188.41666666666669,44.66099359443757L189,43.22736016423079L189.58333333333334,47.84409795982896L190.16666666666669,50.61414063718797L190.75,74.18387030349768L191.33333333333334,55.46416833594485L191.91666666666666,44.23234715541312L192.5,53.92400800826066L193.08333333333334,59.73900451996926L193.66666666666666,46.797248865827726L194.25,49.98603118078714L194.83333333333331,51.8993005697629L195.41666666666666,53.04726220314828L196,48.25912132945743L196.58333333333331,50.86315465896506L197.16666666666669,41.4717389492252L197.75,41.31380737710353L198.33333333333334,41.21904843383041L198.91666666666669,46.639110921588866L199.5,38.937312706799474L200.08333333333334,39.793151631648016L200.66666666666666,40.30665498655725L201.25,40.6147569995027L201.83333333333334,40.79961820726987L202.41666666666666,46.387452785652414L203,44.26323567895989L203.58333333333331,48.465623268666434L204.16666666666666,67.41784202866252L204.75,56.88146922476588L205.33333333333331,50.5596455424279L205.91666666666669,41.28963347930298L206.5,35.727626241428L207.08333333333334,32.3904218987029L207.66666666666669,46.81885285423459L208.25,44.52207572010926L208.83333333333334,48.62092729335606L209.41666666666666,56.55715609102647L210,44.888139808462L210.58333333333334,43.363647892645446L211.16666666666666,58.8797389493277L211.75,46.281689523442736L212.33333333333331,38.722859867911865L212.91666666666666,45.141397782037615L213.5,38.03868482306871L214.08333333333331,33.77705704768732L214.66666666666669,36.69699823618075L215.25,32.97204509555456L215.83333333333334,30.737073211178966L216.41666666666669,29.396090080553506L217,34.068418055900594L217.58333333333334,42.34873269483086L218.16666666666666,36.36308577074465L218.75,32.771697616292926L219.33333333333334,41.57070043106634L219.91666666666666,46.85010211993034L220.5,39.06390742580439L221.08333333333331,34.39219060932882L221.66666666666666,31.589160519443453L222.25,40.86117817295661L222.83333333333331,40.947470911342236L223.41666666666669,35.52232870065146L224,32.26724337423707L224.58333333333334,30.31419217838834L225.16666666666669,29.142361460879215L225.75,39.39309873781812L226.33333333333334,40.066623250259255L226.91666666666666,45.94765581144608L227.5,43.99935749443614L228.08333333333334,53.784214211674424L228.66666666666666,43.22437468085084L229.25,36.88847096235665L229.83333333333331,38.56384658498243L230.41666666666666,50.52290766600228L231,57.69834431461423L231.58333333333331,45.57285274261477L232.16666666666669,43.774475653137216L232.75,37.21853154572847L233.33333333333334,33.28496508128322L233.91666666666669,41.87866091006043L234.5,41.557960553604744L235.08333333333334,41.3655403397313L235.66666666666666,46.72700606512936L236.25,66.37467170654027L236.83333333333334,56.25556703149243L237.41666666666666,44.7071863727416L238,48.73199368493553L238.58333333333331,56.62379592597409L239.16666666666666,50.40504156315275L239.75,41.19687109173785L240.33333333333331,35.67196880888892L240.91666666666669,37.83394529290169L241.5,33.65421332958718L242.08333333333334,31.146374151598422L242.66666666666669,40.595506352249544L243.25,40.78806781891808L243.83333333333334,46.38052255264137L244.41666666666666,44.25907753915331L245,37.509292677338124L245.58333333333334,33.459421760249086L246.16666666666666,41.983334917439976L246.75,52.57460066547674L247.33333333333331,47.97552440685453L247.91666666666666,39.73916079795882L248.5,45.751178340065906L249.08333333333331,38.40455315788569L249.66666666666669,44.950413756022016L250.25,43.401012261181705L250.83333333333334,36.994453510555246L251.41666666666669,38.62743611390138L252,39.607225675909206L252.58333333333334,51.148935120558335L253.16666666666666,41.643207226181175L253.75,41.41668834327706L254.33333333333334,35.80385915981233L254.91666666666666,37.91307950345575L255.5,33.701693855919586L256.0833333333333,36.651780321119986L256.66666666666663,38.42183220024046" style="fill: none;" fill="none"></path></g></g></g></g><g opacity="0.2"><g><g><g><path stroke="rgb(255, 112, 67)" stroke-width="2px" d="M26.25,424.4615678420434L26.833333333333336,164.30772495269778L27.416666666666668,164.30772495269778L28,164.30772495269778L28.583333333333332,287.538458273961L30.916666666666664,191.6923142213088L31.5,136.92305407157312L32.08333333333333,164.30772495269778L32.666666666666664,164.30772495269778L33.25,109.5384648029621L33.833333333333336,136.92305407157312L34.416666666666664,95.84617016865658L35,178.0000195870033L35.58333333333333,123.23075943726761L36.16666666666667,109.5384648029621L36.75,136.92305407157312L37.333333333333336,136.92305407157312L37.916666666666664,136.92305407157312L38.5,150.61534870587866L39.083333333333336,136.92305407157312L39.666666666666664,109.5384648029621L40.25,123.23075943726761L40.833333333333336,150.61534870587866L41.416666666666664,178.0000195870033L42,54.769204653226424L42.58333333333333,136.92305407157312L43.16666666666667,178.0000195870033L43.75,150.61534870587866L44.33333333333333,178.0000195870033L44.91666666666667,109.5384648029621L45.5,95.84617016865658L46.083333333333336,123.23075943726761L46.666666666666664,95.84617016865658L47.25,150.61534870587866L47.833333333333336,95.84617016865658L48.416666666666664,109.5384648029621L49,109.5384648029621L49.583333333333336,150.61534870587866L50.166666666666664,95.84617016865658L50.75,109.5384648029621L51.33333333333333,54.769204653226424L51.91666666666667,109.5384648029621L52.5,82.15387553435107L53.08333333333333,82.15387553435107L53.66666666666667,136.92305407157312L54.25,109.5384648029621L54.833333333333336,123.23075943726761L55.416666666666664,109.5384648029621L56,68.46149928753194L56.583333333333336,136.92305407157312L57.166666666666664,95.84617016865658L57.75,54.769204653226424L58.333333333333336,95.84617016865658L58.916666666666664,123.23075943726761L59.5,54.769204653226424L60.08333333333333,95.84617016865658L60.66666666666667,123.23075943726761L61.25,123.23075943726761L61.83333333333333,136.92305407157312L62.41666666666667,109.5384648029621L63,54.769204653226424L63.583333333333336,68.46149928753194L64.16666666666666,41.07691001892093L64.75,68.46149928753194L65.33333333333333,123.23075943726761L65.91666666666667,123.23075943726761L66.5,95.84617016865658L67.08333333333334,82.15387553435107L67.66666666666667,82.15387553435107L68.25,82.15387553435107L68.83333333333333,68.46149928753194L69.41666666666667,54.769204653226424L70,95.84617016865658L70.58333333333333,95.84617016865658L71.16666666666666,54.769204653226424L71.75,68.46149928753194L72.33333333333334,68.46149928753194L72.91666666666667,82.15387553435107L73.5,95.84617016865658L74.08333333333333,136.92305407157312L74.66666666666667,82.15387553435107L75.25,68.46149928753194L75.83333333333333,68.46149928753194L76.41666666666666,123.23075943726761L77,82.15387553435107L77.58333333333334,54.769204653226424L78.16666666666667,82.15387553435107L78.75,82.15387553435107L79.33333333333333,54.769204653226424L79.91666666666666,54.769204653226424L80.5,82.15387553435107L81.08333333333334,109.5384648029621L81.66666666666667,54.769204653226424L82.25,41.07691001892093L82.83333333333333,82.15387553435107L83.41666666666667,54.769204653226424L84,54.769204653226424L84.58333333333333,68.46149928753194L85.16666666666666,68.46149928753194L85.75,68.46149928753194L86.33333333333334,68.46149928753194L86.91666666666667,41.07691001892093L87.5,82.15387553435107L88.08333333333333,68.46149928753194L88.66666666666666,41.07691001892093L89.25,41.07691001892093L89.83333333333334,54.769204653226424L90.41666666666667,41.07691001892093L91,41.07691001892093L91.58333333333333,41.07691001892093L92.16666666666667,82.15387553435107L92.75,27.384615384615415L93.33333333333333,41.07691001892093L93.91666666666666,54.769204653226424L94.5,27.384615384615415L95.08333333333334,82.15387553435107L95.66666666666667,82.15387553435107L96.25,54.769204653226424L96.83333333333333,68.46149928753194L97.41666666666666,54.769204653226424L98,54.769204653226424L98.58333333333334,54.769204653226424L99.16666666666667,27.384615384615415L99.75,54.769204653226424L100.33333333333333,54.769204653226424L100.91666666666667,95.84617016865658L101.5,41.07691001892093L102.08333333333333,41.07691001892093L102.66666666666666,54.769204653226424L103.25,27.384615384615415L103.83333333333334,54.769204653226424L104.41666666666667,54.769204653226424L105,54.769204653226424L105.58333333333333,82.15387553435107L106.16666666666666,41.07691001892093L106.75,54.769204653226424L107.33333333333334,54.769204653226424L107.91666666666667,54.769204653226424L108.5,41.07691001892093L109.08333333333333,54.769204653226424L109.66666666666667,54.769204653226424L110.25,68.46149928753194L110.83333333333333,68.46149928753194L111.41666666666666,54.769204653226424L112,68.46149928753194L112.58333333333334,95.84617016865658L113.16666666666667,68.46149928753194L113.75,68.46149928753194L114.33333333333333,27.384615384615415L114.91666666666666,68.46149928753194L115.5,41.07691001892093L116.08333333333334,54.769204653226424L116.66666666666667,54.769204653226424L117.25,41.07691001892093L117.83333333333333,68.46149928753194L118.41666666666667,54.769204653226424L119,54.769204653226424L119.58333333333333,27.384615384615415L120.16666666666666,27.384615384615415L120.75,41.07691001892093L121.33333333333334,41.07691001892093L121.91666666666667,41.07691001892093L122.5,82.15387553435107L123.08333333333333,136.92305407157312L123.66666666666666,82.15387553435107L124.25,68.46149928753194L124.83333333333334,68.46149928753194L125.41666666666667,54.769204653226424L126,54.769204653226424L126.58333333333333,54.769204653226424L127.16666666666667,68.46149928753194L127.75,41.07691001892093L128.33333333333331,41.07691001892093L128.91666666666666,68.46149928753194L129.5,27.384615384615415L130.08333333333334,54.769204653226424L130.66666666666666,54.769204653226424L131.25,41.07691001892093L131.83333333333334,68.46149928753194L132.41666666666666,68.46149928753194L133,54.769204653226424L133.58333333333334,68.46149928753194L134.16666666666669,41.07691001892093L134.75,54.769204653226424L135.33333333333334,41.07691001892093L135.91666666666666,27.384615384615415L136.5,54.769204653226424L137.08333333333331,95.84617016865658L137.66666666666666,68.46149928753194L138.25,68.46149928753194L138.83333333333334,27.384615384615415L139.41666666666666,68.46149928753194L140,27.384615384615415L140.58333333333334,54.769204653226424L141.16666666666666,54.769204653226424L141.75,68.46149928753194L142.33333333333331,95.84617016865658L142.91666666666666,27.384615384615415L143.5,68.46149928753194L144.08333333333331,68.46149928753194L144.66666666666669,41.07691001892093L145.25,68.46149928753194L145.83333333333334,41.07691001892093L146.41666666666669,68.46149928753194L147,41.07691001892093L147.58333333333334,68.46149928753194L148.16666666666666,82.15387553435107L148.75,41.07691001892093L149.33333333333334,68.46149928753194L149.91666666666666,82.15387553435107L150.5,68.46149928753194L151.08333333333331,54.769204653226424L151.66666666666666,54.769204653226424L152.25,27.384615384615415L152.83333333333331,27.384615384615415L153.41666666666669,41.07691001892093L154,41.07691001892093L154.58333333333334,41.07691001892093L155.16666666666669,54.769204653226424L155.75,54.769204653226424L156.33333333333334,41.07691001892093L156.91666666666666,41.07691001892093L157.5,54.769204653226424L158.08333333333334,54.769204653226424L158.66666666666666,27.384615384615415L159.25,27.384615384615415L159.83333333333331,41.07691001892093L160.41666666666666,41.07691001892093L161,54.769204653226424L161.58333333333331,41.07691001892093L162.16666666666669,41.07691001892093L162.75,41.07691001892093L163.33333333333334,27.384615384615415L163.91666666666669,27.384615384615415L164.5,27.384615384615415L165.08333333333334,54.769204653226424L165.66666666666666,82.15387553435107L166.25,41.07691001892093L166.83333333333334,27.384615384615415L167.41666666666666,27.384615384615415L168,54.769204653226424L168.58333333333331,27.384615384615415L169.16666666666666,27.384615384615415L169.75,82.15387553435107L170.33333333333331,41.07691001892093L170.91666666666669,68.46149928753194L171.5,27.384615384615415L172.08333333333334,41.07691001892093L172.66666666666669,27.384615384615415L173.25,27.384615384615415L173.83333333333334,41.07691001892093L174.41666666666666,27.384615384615415L175,27.384615384615415L175.58333333333334,54.769204653226424L176.16666666666666,27.384615384615415L176.75,54.769204653226424L177.33333333333331,54.769204653226424L177.91666666666666,68.46149928753194L178.5,41.07691001892093L179.08333333333331,41.07691001892093L179.66666666666669,27.384615384615415L180.25,27.384615384615415L180.83333333333334,41.07691001892093L181.41666666666669,41.07691001892093L182,27.384615384615415L182.58333333333334,27.384615384615415L183.16666666666666,41.07691001892093L183.75,41.07691001892093L184.33333333333334,54.769204653226424L184.91666666666666,54.769204653226424L185.5,41.07691001892093L186.08333333333331,27.384615384615415L186.66666666666666,41.07691001892093L187.25,68.46149928753194L187.83333333333331,41.07691001892093L188.41666666666669,41.07691001892093L189,41.07691001892093L189.58333333333334,54.769204653226424L190.16666666666669,54.769204653226424L190.75,109.5384648029621L191.33333333333334,27.384615384615415L191.91666666666666,27.384615384615415L192.5,68.46149928753194L193.08333333333334,68.46149928753194L193.66666666666666,27.384615384615415L194.25,54.769204653226424L194.83333333333331,54.769204653226424L195.41666666666666,54.769204653226424L196,41.07691001892093L196.58333333333331,54.769204653226424L197.16666666666669,27.384615384615415L197.75,41.07691001892093L198.33333333333334,41.07691001892093L198.91666666666669,54.769204653226424L199.5,27.384615384615415L200.08333333333334,41.07691001892093L200.66666666666666,41.07691001892093L201.25,41.07691001892093L201.83333333333334,41.07691001892093L202.41666666666666,54.769204653226424L203,41.07691001892093L203.58333333333331,54.769204653226424L204.16666666666666,95.84617016865658L204.75,41.07691001892093L205.33333333333331,41.07691001892093L205.91666666666669,27.384615384615415L206.5,27.384615384615415L207.08333333333334,27.384615384615415L207.66666666666669,68.46149928753194L208.25,41.07691001892093L208.83333333333334,54.769204653226424L209.41666666666666,68.46149928753194L210,27.384615384615415L210.58333333333334,41.07691001892093L211.16666666666666,82.15387553435107L211.75,27.384615384615415L212.33333333333331,27.384615384615415L212.91666666666666,54.769204653226424L213.5,27.384615384615415L214.08333333333331,27.384615384615415L214.66666666666669,41.07691001892093L215.25,27.384615384615415L215.83333333333334,27.384615384615415L216.41666666666669,27.384615384615415L217,41.07691001892093L217.58333333333334,54.769204653226424L218.16666666666666,27.384615384615415L218.75,27.384615384615415L219.33333333333334,54.769204653226424L219.91666666666666,54.769204653226424L220.5,27.384615384615415L221.08333333333331,27.384615384615415L221.66666666666666,27.384615384615415L222.25,54.769204653226424L222.83333333333331,41.07691001892093L223.41666666666669,27.384615384615415L224,27.384615384615415L224.58333333333334,27.384615384615415L225.16666666666669,27.384615384615415L225.75,54.769204653226424L226.33333333333334,41.07691001892093L226.91666666666666,54.769204653226424L227.5,41.07691001892093L228.08333333333334,68.46149928753194L228.66666666666666,27.384615384615415L229.25,27.384615384615415L229.83333333333331,41.07691001892093L230.41666666666666,68.46149928753194L231,68.46149928753194L231.58333333333331,27.384615384615415L232.16666666666669,41.07691001892093L232.75,27.384615384615415L233.33333333333334,27.384615384615415L233.91666666666669,54.769204653226424L234.5,41.07691001892093L235.08333333333334,41.07691001892093L235.66666666666666,54.769204653226424L236.25,95.84617016865658L236.83333333333334,41.07691001892093L237.41666666666666,27.384615384615415L238,54.769204653226424L238.58333333333331,68.46149928753194L239.16666666666666,41.07691001892093L239.75,27.384615384615415L240.33333333333331,27.384615384615415L240.91666666666669,41.07691001892093L241.5,27.384615384615415L242.08333333333334,27.384615384615415L242.66666666666669,54.769204653226424L243.25,41.07691001892093L243.83333333333334,54.769204653226424L244.41666666666666,41.07691001892093L245,27.384615384615415L245.58333333333334,27.384615384615415L246.16666666666666,54.769204653226424L246.75,68.46149928753194L247.33333333333331,41.07691001892093L247.91666666666666,27.384615384615415L248.5,54.769204653226424L249.08333333333331,27.384615384615415L249.66666666666669,54.769204653226424L250.25,41.07691001892093L250.83333333333334,27.384615384615415L251.41666666666669,41.07691001892093L252,41.07691001892093L252.58333333333334,68.46149928753194L253.16666666666666,27.384615384615415L253.75,41.07691001892093L254.33333333333334,27.384615384615415L254.91666666666666,41.07691001892093L255.5,27.384615384615415L256.0833333333333,41.07691001892093L256.66666666666663,41.07691001892093" style="fill: none;" fill="none"></path></g></g></g></g></g></g><g transform="translate(50, 178)" clip-path="url(#clip_1)"><clipPath id="clip_1"><rect width="280" height="22"></rect></clipPath><g><g><line x1="0" y1="0" x2="0" y2="5" style="visibility: inherit;" fill="rgb(0, 0, 0)" stroke="rgb(204, 204, 204)" stroke-width="1px"></line><line x1="23.333333333333332" y1="0" x2="23.333333333333332" y2="5" style="visibility: inherit;" fill="rgb(0, 0, 0)" stroke="rgb(204, 204, 204)" stroke-width="1px"></line><line x1="46.666666666666664" y1="0" x2="46.666666666666664" y2="5" style="visibility: inherit;" fill="rgb(0, 0, 0)" stroke="rgb(204, 204, 204)" stroke-width="1px"></line><line x1="70" y1="0" x2="70" y2="5" style="visibility: inherit;" fill="rgb(0, 0, 0)" stroke="rgb(204, 204, 204)" stroke-width="1px"></line><line x1="93.33333333333333" y1="0" x2="93.33333333333333" y2="5" style="visibility: inherit;" fill="rgb(0, 0, 0)" stroke="rgb(204, 204, 204)" stroke-width="1px"></line><line x1="116.66666666666667" y1="0" x2="116.66666666666667" y2="5" style="visibility: inherit;" fill="rgb(0, 0, 0)" stroke="rgb(204, 204, 204)" stroke-width="1px"></line><line x1="140" y1="0" x2="140" y2="5" style="visibility: inherit;" fill="rgb(0, 0, 0)" stroke="rgb(204, 204, 204)" stroke-width="1px"></line><line x1="163.33333333333334" y1="0" x2="163.33333333333334" y2="5" style="visibility: inherit;" fill="rgb(0, 0, 0)" stroke="rgb(204, 204, 204)" stroke-width="1px"></line><line x1="186.66666666666666" y1="0" x2="186.66666666666666" y2="5" style="visibility: inherit;" fill="rgb(0, 0, 0)" stroke="rgb(204, 204, 204)" stroke-width="1px"></line><line x1="210" y1="0" x2="210" y2="5" style="visibility: inherit;" fill="rgb(0, 0, 0)" stroke="rgb(204, 204, 204)" stroke-width="1px"></line><line x1="233.33333333333334" y1="0" x2="233.33333333333334" y2="5" style="visibility: inherit;" fill="rgb(0, 0, 0)" stroke="rgb(204, 204, 204)" stroke-width="1px"></line><line x1="256.66666666666663" y1="0" x2="256.66666666666663" y2="5" style="visibility: inherit;" fill="rgb(0, 0, 0)" stroke="rgb(204, 204, 204)" stroke-width="1px"></line><line x1="280" y1="0" x2="280" y2="5" style="visibility: inherit;" fill="rgb(0, 0, 0)" stroke="rgb(204, 204, 204)" stroke-width="1px"></line></g><g transform="translate(0, 8)"><text x="0" y="0" dx="0em" dy="0.95em" style="text-anchor: middle; visibility: hidden; font-family: &quot;Helvetica Neue&quot;, sans-serif; font-size: 12px; font-weight: 200;" fill="rgb(50, 49, 63)" stroke="none" stroke-width="1px">-200</text><text x="23.333333333333332" y="0" dx="0em" dy="0.95em" style="text-anchor: middle; visibility: inherit; font-family: &quot;Helvetica Neue&quot;, sans-serif; font-size: 12px; font-weight: 200;" fill="rgb(50, 49, 63)" stroke="none" stroke-width="1px">0</text><text x="46.666666666666664" y="0" dx="0em" dy="0.95em" style="text-anchor: middle; visibility: hidden; font-family: &quot;Helvetica Neue&quot;, sans-serif; font-size: 12px; font-weight: 200;" fill="rgb(50, 49, 63)" stroke="none" stroke-width="1px">200</text><text x="70" y="0" dx="0em" dy="0.95em" style="text-anchor: middle; visibility: inherit; font-family: &quot;Helvetica Neue&quot;, sans-serif; font-size: 12px; font-weight: 200;" fill="rgb(50, 49, 63)" stroke="none" stroke-width="1px">400</text><text x="93.33333333333333" y="0" dx="0em" dy="0.95em" style="text-anchor: middle; visibility: hidden; font-family: &quot;Helvetica Neue&quot;, sans-serif; font-size: 12px; font-weight: 200;" fill="rgb(50, 49, 63)" stroke="none" stroke-width="1px">600</text><text x="116.66666666666667" y="0" dx="0em" dy="0.95em" style="text-anchor: middle; visibility: inherit; font-family: &quot;Helvetica Neue&quot;, sans-serif; font-size: 12px; font-weight: 200;" fill="rgb(50, 49, 63)" stroke="none" stroke-width="1px">800</text><text x="140" y="0" dx="0em" dy="0.95em" style="text-anchor: middle; visibility: hidden; font-family: &quot;Helvetica Neue&quot;, sans-serif; font-size: 12px; font-weight: 200;" fill="rgb(50, 49, 63)" stroke="none" stroke-width="1px">1k</text><text x="163.33333333333334" y="0" dx="0em" dy="0.95em" style="text-anchor: middle; visibility: inherit; font-family: &quot;Helvetica Neue&quot;, sans-serif; font-size: 12px; font-weight: 200;" fill="rgb(50, 49, 63)" stroke="none" stroke-width="1px">1.2k</text><text x="186.66666666666666" y="0" dx="0em" dy="0.95em" style="text-anchor: middle; visibility: hidden; font-family: &quot;Helvetica Neue&quot;, sans-serif; font-size: 12px; font-weight: 200;" fill="rgb(50, 49, 63)" stroke="none" stroke-width="1px">1.4k</text><text x="210" y="0" dx="0em" dy="0.95em" style="text-anchor: middle; visibility: inherit; font-family: &quot;Helvetica Neue&quot;, sans-serif; font-size: 12px; font-weight: 200;" fill="rgb(50, 49, 63)" stroke="none" stroke-width="1px">1.6k</text><text x="233.33333333333334" y="0" dx="0em" dy="0.95em" style="text-anchor: middle; visibility: hidden; font-family: &quot;Helvetica Neue&quot;, sans-serif; font-size: 12px; font-weight: 200;" fill="rgb(50, 49, 63)" stroke="none" stroke-width="1px">1.8k</text><text x="256.66666666666663" y="0" dx="0em" dy="0.95em" style="text-anchor: middle; visibility: inherit; font-family: &quot;Helvetica Neue&quot;, sans-serif; font-size: 12px; font-weight: 200;" fill="rgb(50, 49, 63)" stroke="none" stroke-width="1px">2k</text><text x="280" y="0" dx="0em" dy="0.95em" style="text-anchor: middle; visibility: hidden; font-family: &quot;Helvetica Neue&quot;, sans-serif; font-size: 12px; font-weight: 200;" fill="rgb(50, 49, 63)" stroke="none" stroke-width="1px">2.2k</text></g><line x1="0" y1="0" x2="280" y2="0" fill="rgb(0, 0, 0)" stroke="rgb(204, 204, 204)" stroke-width="1px"></line></g></g></g></g></svg>